<svg width="14" height="14" viewBox="0 0 14 14" fill="none" xmlns="http://www.w3.org/2000/svg">
<path d="M12.8337 5.83366V8.75033C12.8337 11.667 11.667 12.8337 8.75033 12.8337H5.25033C2.33366 12.8337 1.16699 11.667 1.16699 8.75033V5.25033C1.16699 2.33366 2.33366 1.16699 5.25033 1.16699H8.16699" fill="#FCFCFC"/>
<path d="M12.8337 5.83366V8.75033C12.8337 11.667 11.667 12.8337 8.75033 12.8337H5.25033C2.33366 12.8337 1.16699 11.667 1.16699 8.75033V5.25033C1.16699 2.33366 2.33366 1.16699 5.25033 1.16699H8.16699" stroke="#477DB3" stroke-width="1.5" stroke-linecap="round" stroke-linejoin="round"/>
<path d="M12.8337 5.83366H10.5003C8.75033 5.83366 8.16699 5.25033 8.16699 3.50033V1.16699L12.8337 5.83366Z" stroke="#477DB3" stroke-width="1.5" stroke-linecap="round" stroke-linejoin="round"/>
</svg>
